<?xml version="1.0" encoding="UTF-8"?>
<svg version="1.1" xmlns="http://www.w3.org/2000/svg" width="577" height="433">
<path d="M0 0 C1.21536942 -0.00671722 2.43073883 -0.01343445 3.68293762 -0.02035522 C7.00547143 -0.03606758 10.32775521 -0.04270847 13.65030885 -0.0439868 C15.72988779 -0.04541193 17.80944081 -0.04968839 19.88901329 -0.05498123 C27.15486683 -0.07346548 34.42064716 -0.08165395 41.68652344 -0.08007812 C48.44170191 -0.07887746 55.1965605 -0.09996888 61.95165807 -0.13156545 C67.76589951 -0.1577846 73.58003683 -0.16844306 79.39433688 -0.16716731 C82.86047198 -0.16665928 86.32632265 -0.17225316 89.79239845 -0.19352341 C93.66250533 -0.21662624 97.53217932 -0.20735044 101.40234375 -0.1953125 C102.53875305 -0.20655151 103.67516235 -0.21779053 104.8460083 -0.22937012 C111.74023817 -0.17500751 116.85836459 0.90444066 122.89526367 4.29052734 C122.89526367 4.95052734 122.89526367 5.61052734 122.89526367 6.29052734 C123.49209961 6.54318359 124.08893555 6.79583984 124.70385742 7.05615234 C130.0349326 10.05903961 133.62460443 16.79314181 135.89526367 22.29052734 C136.6815445 26.26411218 137.05277255 30.11160346 137.17651367 34.15649414 C137.23162109 35.85306404 137.23162109 35.85306404 137.2878418 37.58390808 C137.32329102 38.79033463 137.35874023 39.99676117 137.39526367 41.23974609 C137.43586914 42.48931595 137.47647461 43.7388858 137.51831055 45.02632141 C137.66978817 49.68780868 137.81446317 54.34948592 137.95776367 59.01123047 C138.09869265 63.58756873 138.24621897 68.16366337 138.39526367 72.73974609 C138.43071289 73.95224533 138.46616211 75.16474457 138.50268555 76.41398621 C138.55779297 78.09637138 138.55779297 78.09637138 138.61401367 79.81274414 C138.64430664 80.80058395 138.67459961 81.78842377 138.70581055 82.80619812 C138.80402365 85.4221003 138.80402365 85.4221003 139.89526367 88.29052734 C145.04579828 87.84232448 147.6294126 86.3263513 151.52026367 82.97802734 C152.4406543 82.19814453 153.36104492 81.41826172 154.30932617 80.61474609 C155.95992518 79.13120167 157.56574261 77.59517198 159.10620117 75.99755859 C160.89526367 74.29052734 160.89526367 74.29052734 162.89526367 74.29052734 C163.88526367 72.31052734 163.88526367 72.31052734 164.89526367 70.29052734 C165.55526367 70.29052734 166.21526367 70.29052734 166.89526367 70.29052734 C166.89526367 69.63052734 166.89526367 68.97052734 166.89526367 68.29052734 C168.36401367 66.81005859 168.36401367 66.81005859 170.39526367 65.10302734 C171.12358398 64.48298828 171.8519043 63.86294922 172.60229492 63.22412109 C173.35897461 62.58603516 174.1156543 61.94794922 174.89526367 61.29052734 C180.01425388 56.88276795 184.97373332 52.42846735 189.58276367 47.47802734 C190.89526367 46.29052734 190.89526367 46.29052734 192.89526367 46.29052734 C193.22526367 45.30052734 193.55526367 44.31052734 193.89526367 43.29052734 C195.49682617 41.71240234 195.49682617 41.71240234 197.52026367 40.04052734 C201.04896461 37.06397925 204.28036108 33.92955218 207.44995117 30.57568359 C208.89526367 29.29052734 208.89526367 29.29052734 210.89526367 29.29052734 C210.89526367 28.63052734 210.89526367 27.97052734 210.89526367 27.29052734 C212.36401367 25.84521484 212.36401367 25.84521484 214.39526367 24.16552734 C218.24518707 20.91158853 221.75590702 17.44280016 225.23120117 13.79443359 C226.89526367 12.29052734 226.89526367 12.29052734 228.89526367 12.29052734 C228.89526367 11.63052734 228.89526367 10.97052734 228.89526367 10.29052734 C230.58276367 8.66943359 230.58276367 8.66943359 232.89526367 6.85302734 C234.00901367 5.95777344 234.00901367 5.95777344 235.14526367 5.04443359 C243.9404564 -0.56500041 252.66977462 -0.16760289 262.72338867 -0.14306641 C264.36147273 -0.14763258 265.99955488 -0.15293945 267.63763428 -0.15895081 C271.05692371 -0.1678516 274.47597914 -0.16549053 277.89526367 -0.15551758 C282.27582111 -0.14398496 286.65557755 -0.16431959 291.03602982 -0.19343472 C294.41267002 -0.21177185 297.78911689 -0.21151008 301.16579437 -0.2057972 C302.78133016 -0.20564392 304.39687901 -0.21169316 306.01236725 -0.22408867 C308.26714228 -0.23896443 310.52041847 -0.22835189 312.77514648 -0.21118164 C314.69753143 -0.21093239 314.69753143 -0.21093239 316.65875244 -0.2106781 C320.44456279 0.37559169 321.60808882 1.28067453 323.89526367 4.29052734 C324.61010742 6.47412109 324.61010742 6.47412109 324.83276367 8.72802734 C324.92428711 9.46923828 325.01581055 10.21044922 325.11010742 10.97412109 C324.65258335 15.90706243 321.09746063 19.34350286 317.73510742 22.71630859 C316.94168945 23.51230469 316.14827148 24.30830078 315.33081055 25.12841797 C314.09427734 26.35334961 314.09427734 26.35334961 312.83276367 27.60302734 C312.00454102 28.43898438 311.17631836 29.27494141 310.32299805 30.13623047 C309.13480469 31.32055664 309.13480469 31.32055664 307.92260742 32.52880859 C307.19807373 33.25108643 306.47354004 33.97336426 305.72705078 34.7175293 C303.89526367 36.29052734 303.89526367 36.29052734 301.89526367 36.29052734 C301.68901367 36.84740234 301.48276367 37.40427734 301.27026367 37.97802734 C299.72655706 40.5742612 297.83300891 42.1318667 295.48510742 43.99755859 C292.09920705 46.75120239 289.3117305 49.6658271 286.89526367 53.29052734 C285.90526367 53.29052734 284.91526367 53.29052734 283.89526367 53.29052734 C283.68901367 53.84740234 283.48276367 54.40427734 283.27026367 54.97802734 C281.72334385 57.57966523 279.8255581 59.13990682 277.46948242 61.00537109 C275.67829725 62.42367689 275.67829725 62.42367689 273.39526367 64.79052734 C270.70038978 67.48540123 267.82201238 69.85157009 264.89526367 72.29052734 C264.04963867 73.13615234 263.20401367 73.98177734 262.33276367 74.85302734 C259.97421084 77.21158018 257.49696702 79.20916467 254.89526367 81.29052734 C254.00838867 82.19802734 253.12151367 83.10552734 252.20776367 84.04052734 C249.89526367 86.29052734 249.89526367 86.29052734 247.89526367 86.29052734 C247.56526367 87.28052734 247.23526367 88.27052734 246.89526367 89.29052734 C245.17812138 90.83169803 243.39731194 92.30282585 241.58276367 93.72802734 C238.80016516 95.92364246 236.1414715 98.0382829 233.66479492 100.57568359 C231.89526367 102.29052734 231.89526367 102.29052734 229.89526367 102.29052734 C229.89526367 102.95052734 229.89526367 103.61052734 229.89526367 104.29052734 C229.21463867 104.86802734 228.53401367 105.44552734 227.83276367 106.04052734 C225.62915946 108.14491677 225.62915946 108.14491677 225.70776367 111.04052734 C228.45855642 118.56901276 235.86783688 124.40162357 241.48291016 129.95996094 C242.20569656 130.67968079 242.92848297 131.39940063 243.673172 132.14093018 C245.22764376 133.68829947 246.78324284 135.23453696 248.33987236 136.77973557 C250.80055916 139.22292335 253.25759137 141.66973271 255.71363831 144.11758423 C262.69171475 151.07128685 269.67553417 158.0192013 276.66357422 164.96289062 C280.94870555 169.22132719 285.22902468 173.48455096 289.50636482 177.75081253 C291.13725417 179.37547797 292.7700404 180.99824149 294.40472221 182.61909103 C296.67879049 184.87406464 298.94674435 187.13501895 301.21337891 189.39746094 C301.89433624 190.06965668 302.57529358 190.74185242 303.27688599 191.43441772 C303.88941727 192.04825317 304.50194855 192.66208862 305.13304138 193.29452515 C305.6696511 193.82799246 306.20626081 194.36145977 306.75913143 194.91109276 C307.89526367 196.29052734 307.89526367 196.29052734 307.89526367 198.29052734 C308.55526367 198.29052734 309.21526367 198.29052734 309.89526367 198.29052734 C309.89526367 198.95052734 309.89526367 199.61052734 309.89526367 200.29052734 C310.55526367 200.29052734 311.21526367 200.29052734 311.89526367 200.29052734 C311.89526367 200.95052734 311.89526367 201.61052734 311.89526367 202.29052734 C312.55526367 202.29052734 313.21526367 202.29052734 313.89526367 202.29052734 C313.89526367 202.95052734 313.89526367 203.61052734 313.89526367 204.29052734 C314.55526367 204.29052734 315.21526367 204.29052734 315.89526367 204.29052734 C317.48120117 205.89990234 317.48120117 205.89990234 319.27026367 208.04052734 C321.23284094 210.35956437 323.15409317 212.54272019 325.33276367 214.66552734 C326.89526367 216.29052734 326.89526367 216.29052734 326.89526367 218.29052734 C327.88526367 218.62052734 328.87526367 218.95052734 329.89526367 219.29052734 C331.29760742 220.64599609 331.29760742 220.64599609 332.83276367 222.47802734 C333.43733398 223.19345703 334.0419043 223.90888672 334.66479492 224.64599609 C335.40084961 225.51869141 336.1369043 226.39138672 336.89526367 227.29052734 C337.87649162 228.41323624 338.85970289 229.53421365 339.84448242 230.65380859 C356.50741421 249.67209829 356.50741421 249.67209829 356.14526367 262.95849609 C355.39629735 269.94494757 352.968356 275.44803012 347.89526367 280.29052734 C341.71037856 283.74054446 336.13204702 283.72339308 329.15185547 283.69458008 C327.40414352 283.70487495 327.40414352 283.70487495 325.62112427 283.71537781 C321.77878548 283.73364223 317.93685522 283.72980799 314.09448242 283.72412109 C312.0931076 283.72752969 310.09173259 283.73094654 308.09035999 283.73547417 C301.80010407 283.74949757 295.50998401 283.74797758 289.21972656 283.73657227 C282.75251889 283.72510446 276.28572658 283.73914877 269.81857365 283.76596874 C264.24716755 283.78820017 258.67589111 283.79474613 253.10444385 283.78889233 C249.78528419 283.78553784 246.4664474 283.78956818 243.14731407 283.80514336 C239.44018422 283.82008646 235.73395784 283.80934966 232.02685547 283.79223633 C230.94236618 283.8019043 229.85787689 283.81157227 228.74052429 283.8215332 C221.68545093 283.7536291 216.24104419 282.38004109 209.89526367 279.29052734 C209.89526367 278.63052734 209.89526367 277.97052734 209.89526367 277.29052734 C209.34354492 277.08427734 208.79182617 276.87802734 208.22338867 276.66552734 C205.02773969 274.77816419 202.95885865 272.12997625 200.64526367 269.29052734 C200.16653809 268.71254395 199.6878125 268.13456055 199.19458008 267.5390625 C197.75442392 265.79520975 196.32457741 264.04326977 194.89526367 262.29052734 C194.0831543 261.30826172 193.27104492 260.32599609 192.43432617 259.31396484 C187.03296692 252.7036371 187.03296692 252.7036371 185.89526367 249.29052734 C185.23526367 249.29052734 184.57526367 249.29052734 183.89526367 249.29052734 C183.89526367 248.30052734 183.89526367 247.31052734 183.89526367 246.29052734 C182.90526367 245.96052734 181.91526367 245.63052734 180.89526367 245.29052734 C179.28713702 243.5582646 177.75329051 241.75602645 176.27026367 239.91552734 C175.47362305 238.93841797 174.67698242 237.96130859 173.85620117 236.95458984 C171.89526367 234.29052734 171.89526367 234.29052734 170.89526367 231.29052734 C170.23526367 231.29052734 169.57526367 231.29052734 168.89526367 231.29052734 C167.55125437 229.29768596 166.21985075 227.29633064 164.89526367 225.29052734 C162.52950227 222.80647787 160.07411863 220.45971447 157.58276367 218.10302734 C155.89526367 216.29052734 155.89526367 216.29052734 155.89526367 214.29052734 C154.17234731 213.72929714 152.44152628 213.19229802 150.70776367 212.66552734 C149.26336914 212.21306641 149.26336914 212.21306641 147.78979492 211.75146484 C144.9253863 211.15595963 144.9253863 211.15595963 142.15698242 211.64208984 C139.02030835 213.92823226 139.01895681 215.97086251 138.27882385 219.66723633 C137.61767902 224.18901777 137.61710161 228.67732102 137.62182617 233.23974609 C137.60155404 235.32503808 137.5807036 237.41032452 137.55932617 239.49560547 C137.53667558 242.74768829 137.52022515 245.99955068 137.5144043 249.25170898 C137.50488199 252.41478117 137.47113299 255.57689014 137.43432617 258.73974609 C137.43937164 259.70861252 137.44441711 260.67747894 137.44961548 261.67570496 C137.3644031 267.53164566 136.72544263 270.79229391 132.89526367 275.29052734 C126.03923846 281.43114123 116.62779539 281.61773571 107.89526367 282.29052734 C106.93063202 282.37234756 105.96600037 282.45416779 104.97213745 282.53846741 C95.73443183 283.27233158 86.54858916 283.45392786 77.28979492 283.45849609 C75.7153877 283.46172566 74.14098076 283.46509086 72.5665741 283.46858215 C69.27972726 283.4745261 65.99290651 283.4764273 62.70605469 283.47583008 C59.39707916 283.47574935 56.08824367 283.48261328 52.77929688 283.49633789 C36.69764723 283.56184173 20.64598606 283.57383669 4.59448242 282.46630859 C3.52760696 282.39695602 2.46073151 282.32760345 1.36152649 282.25614929 C-4.86524242 281.756128 -10.28200374 280.53278043 -16.10473633 278.29052734 C-17.09473633 277.96052734 -18.08473633 277.63052734 -19.10473633 277.29052734 C-19.10473633 276.63052734 -19.10473633 275.97052734 -19.10473633 275.29052734 C-19.94004883 274.98115234 -19.94004883 274.98115234 -20.79223633 274.66552734 C-26.59630782 271.21445781 -29.44979641 265.66300424 -31.10473633 259.29052734 C-31.72640272 254.69827735 -31.98487913 250.10390802 -32.22973633 245.47802734 C-32.30321289 244.30949219 -32.37668945 243.14095703 -32.45239258 241.93701172 C-33.82392794 218.96980993 -34.25814229 196.00913356 -34.23754883 173.00537109 C-34.2377737 170.28129542 -34.23919787 167.55722051 -34.240448 164.83314514 C-34.24224608 159.17171733 -34.23992631 153.51030274 -34.23510742 147.84887695 C-34.22966679 141.38398839 -34.23143573 134.9191314 -34.23693383 128.4542436 C-34.24153026 122.81512023 -34.24208425 117.17600615 -34.23949516 111.53688151 C-34.237968 108.20755692 -34.23805383 104.8782584 -34.24103165 101.54893303 C-34.29726524 21.06454652 -34.29726524 21.06454652 -24.10473633 6.29052734 C-16.38429651 0.28574082 -9.42594068 -0.00747794 0 0 Z " fill="#651881" transform="translate(127.104736328125,74.70947265625)"/>
<path d="M0 0 C1.72530125 -0.00067551 3.4506024 -0.00164759 5.17590332 -0.00289917 C8.77303991 -0.0043645 12.3701515 -0.00225934 15.96728516 0.00244141 C20.5461959 0.00813796 25.125048 0.00485268 29.7039566 -0.00113106 C33.26101106 -0.0047683 36.81805192 -0.00358364 40.37510681 -0.00100327 C42.06216947 -0.00034272 43.74923341 -0.00113139 45.43629456 -0.00348282 C54.66703984 -0.0135295 63.77755694 0.14458034 72.96875 1.1328125 C72.96875 1.4628125 72.96875 1.7928125 72.96875 2.1328125 C62.6000111 3.03372725 52.34044991 3.2813644 41.94140625 3.265625 C40.3382516 3.26630127 38.73509705 3.26727396 37.13194275 3.26852417 C33.79473887 3.2699864 30.45756202 3.26789488 27.12036133 3.26318359 C22.88707096 3.25749191 18.65384411 3.26077127 14.42055607 3.26675606 C11.11644531 3.27040584 7.81234909 3.26920295 4.50823784 3.26662827 C2.94925364 3.26597091 1.39026803 3.26674466 -0.16871452 3.26910782 C-10.16881624 3.28094521 -20.06032414 2.9299048 -30.03125 2.1328125 C-30.03125 1.8028125 -30.03125 1.4728125 -30.03125 1.1328125 C-20.00864174 0.05518702 -10.06469288 -0.01402816 0 0 Z " fill="#9962A3" transform="translate(162.03125,354.8671875)"/>
<path d="M0 0 C0.98016586 0.00703949 1.96033173 0.01407898 2.97019958 0.02133179 C4.04409943 0.0342778 5.11799927 0.04722382 6.22444153 0.06056213 C7.35629379 0.07016968 8.48814606 0.07977722 9.65429688 0.0896759 C13.40405905 0.12271744 17.15370658 0.16303032 20.90339661 0.2033844 C23.49985344 0.22768047 26.09631455 0.25152428 28.69277954 0.27493286 C34.83385083 0.33139289 40.97486121 0.39242206 47.11586601 0.4556542 C54.10730075 0.5273888 61.09878657 0.59330286 68.0902828 0.65872467 C82.47206376 0.79343046 96.85376587 0.93545665 111.23542786 1.08229065 C111.73042786 2.07229065 111.73042786 2.07229065 112.23542786 3.08229065 C72.63542786 3.08229065 33.03542786 3.08229065 -7.76457214 3.08229065 C-7.76457214 2.42229065 -7.76457214 1.76229065 -7.76457214 1.08229065 C-4.8393129 0.10720424 -3.03989156 -0.02957732 0 0 Z " fill="#5D1D6E" transform="translate(353.7645721435547,353.91770935058594)"/>
<path d="M0 0 C3.97147651 1.3238255 5.10180702 3.31279554 7.625 6.625 C8.42164063 7.64851563 9.21828125 8.67203125 10.0390625 9.7265625 C12.16798435 13.28042008 12.70066953 15.90226905 13 20 C12.34 19.67 11.68 19.34 11 19 C11 18.34 11 17.68 11 17 C10.01 16.67 9.02 16.34 8 16 C6.97265625 14.40625 6.97265625 14.40625 6.0625 12.5 C4.59812417 9.65880816 4.59812417 9.65880816 1.9375 8 C-0.22070063 7.89788478 -0.22070063 7.89788478 -3 9 C-2.01 6.03 -1.02 3.06 0 0 Z " fill="#82468F" transform="translate(468,309)"/>
<path d="M0 0 C0.99 0.33 1.98 0.66 3 1 C3 1.99 3 2.98 3 4 C3.66 4 4.32 4 5 4 C7.625 6.3125 7.625 6.3125 10 9 C10 9.99 10 10.98 10 12 C12.97 12.33 15.94 12.66 19 13 C19 13.66 19 14.32 19 15 C15.05272412 15.17942163 12.4019487 15.09350689 9 13 C9 12.34 9 11.68 9 11 C8.443125 10.79375 7.88625 10.5875 7.3125 10.375 C4.00396768 8.40776457 2.2844372 6.10937286 0 3 C0 2.01 0 1.02 0 0 Z " fill="#A36EAC" transform="translate(99,339)"/>
<path d="M0 0 C2 1 2 1 3.375 3.9375 C5.03813522 7.07187022 5.74023094 7.8759417 9 9 C9 9.66 9 10.32 9 11 C10.65 11.33 12.3 11.66 14 12 C14 12.66 14 13.32 14 14 C11.03 13.01 8.06 12.02 5 11 C5 10.34 5 9.68 5 9 C4.401875 8.773125 3.80375 8.54625 3.1875 8.3125 C0.43648112 6.66188867 -0.52484637 4.8027919 -2 2 C-1.34 2 -0.68 2 0 2 C0 1.34 0 0.68 0 0 Z " fill="#975DA5" transform="translate(332,343)"/>
<path d="M0 0 C-0.33 1.32 -0.66 2.64 -1 4 C-1.99 3.67 -2.98 3.34 -4 3 C-4.103125 3.7425 -4.20625 4.485 -4.3125 5.25 C-5.06030424 8.24121694 -5.82441679 9.82441679 -8 12 C-9.32 12 -10.64 12 -12 12 C-10.98584964 7.26729831 -10.00075512 4.76653584 -6.0625 1.75 C-3 0 -3 0 0 0 Z " fill="#955EA2" transform="translate(112,77)"/>
<path d="M0 0 C0.66 0.33 1.32 0.66 2 1 C2 4 2 4 -0.0625 6.5625 C-3.4985545 9.41369416 -5.701938 10.07296702 -10 11 C-6.79239749 7.19364503 -3.59253891 3.45436433 0 0 Z " fill="#713384" transform="translate(354,87)"/>
<path d="M0 0 C0.66 0.99 1.32 1.98 2 3 C1.67 3.99 1.34 4.98 1 6 C-1.0625 6.6875 -1.0625 6.6875 -3 7 C-3.33 8.32 -3.66 9.64 -4 11 C-4.99 10.67 -5.98 10.34 -7 10 C-7.66 10 -8.32 10 -9 10 C-7.84906278 6.54718834 -6.6794007 5.61917837 -3.9375 3.3125 C-2.83728516 2.37857422 -2.83728516 2.37857422 -1.71484375 1.42578125 C-1.14894531 0.95527344 -0.58304687 0.48476562 0 0 Z " fill="#8A4C99" transform="translate(329,111)"/>
<path d="M0 0 C4.52615993 3.67832017 8.39424999 7.41086363 12 12 C10.35 12 8.7 12 7 12 C7 11.34 7 10.68 7 10 C6.34 10 5.68 10 5 10 C3.7109375 8.3203125 3.7109375 8.3203125 2.375 6.125 C1.92898438 5.40570313 1.48296875 4.68640625 1.0234375 3.9453125 C0 2 0 2 0 0 Z " fill="#824590" transform="translate(405,242)"/>
<path d="M0 0 C0.33 0 0.66 0 1 0 C1.08107646 2.75059381 1.14052813 5.49879021 1.1875 8.25 C1.22520508 9.41595703 1.22520508 9.41595703 1.26367188 10.60546875 C1.33834499 16.42997175 1.33834499 16.42997175 -0.51171875 19.546875 C-1.00285156 20.02640625 -1.49398438 20.5059375 -2 21 C-2.33 18.69 -2.66 16.38 -3 14 C-2.34 13.67 -1.68 13.34 -1 13 C-0.53045739 9.95418731 -0.53045739 9.95418731 -0.375 6.4375 C-0.30023438 5.23996094 -0.22546875 4.04242188 -0.1484375 2.80859375 C-0.09945313 1.88175781 -0.05046875 0.95492188 0 0 Z " fill="#793988" transform="translate(263,327)"/>
<path d="M0 0 C0.99 0 1.98 0 3 0 C3 1.65 3 3.3 3 5 C2.34 5 1.68 5 1 5 C1.33 6.98 1.66 8.96 2 11 C-1.39914975 9.86695008 -2.05254451 8.87481525 -4 6 C-3 4 -3 4 0 3 C0 2.01 0 1.02 0 0 Z " fill="#844596" transform="translate(291,289)"/>
<path d="M0 0 C0.66 0.33 1.32 0.66 2 1 C1.67 1.33 1.34 1.66 1 2 C1.99 2.33 2.98 2.66 4 3 C4 3.99 4 4.98 4 6 C2.9275 6.144375 1.855 6.28875 0.75 6.4375 C-1.91662949 6.83749442 -4.41399729 7.27591924 -7 8 C-7 7.34 -7 6.68 -7 6 C-5.46875 4.4921875 -5.46875 4.4921875 -3.5 2.875 C-2.8503125 2.33617188 -2.200625 1.79734375 -1.53125 1.2421875 C-1.0259375 0.83226563 -0.520625 0.42234375 0 0 Z " fill="#8D529B" transform="translate(318,121)"/>
<path d="M0 0 C0.99 0.33 1.98 0.66 3 1 C2.01 1.495 2.01 1.495 1 2 C0.855625 2.66 0.71125 3.32 0.5625 4 C0.376875 4.66 0.19125 5.32 0 6 C-0.99 6.33 -1.98 6.66 -3 7 C-3.33 7.66 -3.66 8.32 -4 9 C-5.65 9 -7.3 9 -9 9 C-9 8.34 -9 7.68 -9 7 C-7.13671875 5.23828125 -7.13671875 5.23828125 -4.6875 3.3125 C-3.48673828 2.34763672 -3.48673828 2.34763672 -2.26171875 1.36328125 C-1.51535156 0.91339844 -0.76898438 0.46351562 0 0 Z " fill="#9C68A7" transform="translate(365,78)"/>
<path d="M0 0 C3 1 3 1 5 4 C4.67 4.99 4.34 5.98 4 7 C0.4375 8.1875 0.4375 8.1875 -3 9 C-2.01 6.03 -1.02 3.06 0 0 Z " fill="#793A8C" transform="translate(468,309)"/>
<path d="M0 0 C3.81484173 0.54497739 5.48786382 2.15291233 8 5 C8.99 6.485 8.99 6.485 10 8 C9.67 8.99 9.34 9.98 9 11 C7.62437146 9.71034824 6.29233607 8.37310707 5 7 C5 6.34 5 5.68 5 5 C4.34 5 3.68 5 3 5 C1.375 2.5 1.375 2.5 0 0 Z " fill="#955E9F" transform="translate(293,301)"/>
<path d="M0 0 C0.33 0.66 0.66 1.32 1 2 C0.195625 2.61875 -0.60875 3.2375 -1.4375 3.875 C-4.03874519 5.74164041 -4.03874519 5.74164041 -5 8 C-5.66 7.67 -6.32 7.34 -7 7 C-6.67 6.01 -6.34 5.02 -6 4 C-7.32 4 -8.64 4 -10 4 C-10 3.34 -10 2.68 -10 2 C-6.7 1.34 -3.4 0.68 0 0 Z " fill="#945BA3" transform="translate(419,120)"/>
<path d="M0 0 C0.66 0.33 1.32 0.66 2 1 C2 1.99 2 2.98 2 4 C1.34 4 0.68 4 0 4 C-0.33 4.99 -0.66 5.98 -1 7 C-4.5625 8.1875 -4.5625 8.1875 -8 9 C-7.04882866 7.8274869 -6.08882991 6.66212985 -5.125 5.5 C-4.32449219 4.52546875 -4.32449219 4.52546875 -3.5078125 3.53125 C-2.76144531 2.77328125 -2.76144531 2.77328125 -2 2 C-1.34 2 -0.68 2 0 2 C0 1.34 0 0.68 0 0 Z " fill="#9F6CA8" transform="translate(338,102)"/>
<path d="M0 0 C3 2 3 2 3.6171875 3.98828125 C4.06285559 8.00604661 4.31850324 10.32144963 2.5625 14.0625 C2.046875 14.701875 1.53125 15.34125 1 16 C0.34 15.67 -0.32 15.34 -1 15 C-1 14.34 -1 13.68 -1 13 C-0.01 13 0.98 13 2 13 C1.85851011 11.3954444 1.71164314 9.79136233 1.5625 8.1875 C1.48128906 7.29417969 1.40007812 6.40085937 1.31640625 5.48046875 C1.06510233 2.87256441 1.06510233 2.87256441 0 0 Z " fill="#B081B4" transform="translate(448,77)"/>
<path d="M0 0 C0.33 0.66 0.66 1.32 1 2 C-0.3125 4.625 -0.3125 4.625 -2 7 C-2.66 7 -3.32 7 -4 7 C-4.33 7.99 -4.66 8.98 -5 10 C-5.66 10 -6.32 10 -7 10 C-7 6 -7 6 -5.46875 4.296875 C-4.8190625 3.78640625 -4.169375 3.2759375 -3.5 2.75 C-2.8503125 2.22921875 -2.200625 1.7084375 -1.53125 1.171875 C-0.77328125 0.59179688 -0.77328125 0.59179688 0 0 Z " fill="#905A9C" transform="translate(301,137)"/>
<path d="M0 0 C-1.375 1.5 -1.375 1.5 -3 3 C-3.66 3 -4.32 3 -5 3 C-5.66 4.32 -6.32 5.64 -7 7 C-7.33 7 -7.66 7 -8 7 C-8 5.02 -8 3.04 -8 1 C-4.93251126 -0.86240388 -3.40254489 -1.2151946 0 0 Z " fill="#9560A0" transform="translate(434,108)"/>
<path d="M0 0 C1.65 1.65 3.3 3.3 5 5 C4.67 5.66 4.34 6.32 4 7 C3.01 7 2.02 7 1 7 C0.34 6.01 -0.32 5.02 -1 4 C-1.99 3.67 -2.98 3.34 -4 3 C-3 1 -3 1 0 0 Z " fill="#8F53A0" transform="translate(473,314)"/>
<path d="M0 0 C1.98 0.66 3.96 1.32 6 2 C6.33 4.31 6.66 6.62 7 9 C4.03595495 6.19195732 1.55500981 3.81684226 0 0 Z " fill="#96639B" transform="translate(318,330)"/>
<path d="M0 0 C0.33 0.66 0.66 1.32 1 2 C0.01 2.495 0.01 2.495 -1 3 C-1.268125 3.66 -1.53625 4.32 -1.8125 5 C-3 7 -3 7 -5.625 7.75 C-6.800625 7.87375 -6.800625 7.87375 -8 8 C-7.04578192 6.85073734 -6.08647955 5.70569459 -5.125 4.5625 C-4.59132813 3.92441406 -4.05765625 3.28632813 -3.5078125 2.62890625 C-2 1 -2 1 0 0 Z " fill="#BB8CBF" transform="translate(310,129)"/>
<path d="M0 0 C1.75 0.125 1.75 0.125 4 1 C6.25 4.0625 6.25 4.0625 8 7 C5 7 5 7 3.3125 5.625 C2 4 2 4 2 2 C1.34 2 0.68 2 0 2 C0 1.34 0 0.68 0 0 Z " fill="#9F68A7" transform="translate(311,322)"/>
<path d="M0 0 C5.57142857 5.14285714 5.57142857 5.14285714 6 9 C4.68 8.67 3.36 8.34 2 8 C1.34 5.36 0.68 2.72 0 0 Z " fill="#AD76B3" transform="translate(254,84)"/>
<path d="M0 0 C0.33 0.99 0.66 1.98 1 3 C-0.65 4.65 -2.3 6.3 -4 8 C-4.33 6.68 -4.66 5.36 -5 4 C-4.360625 3.71125 -3.72125 3.4225 -3.0625 3.125 C-0.84793921 2.17176549 -0.84793921 2.17176549 0 0 Z " fill="#AC7DB2" transform="translate(480,345)"/>
<path d="M0 0 C2.02045442 0.60183749 4.02111039 1.27306096 6 2 C6.33 2.66 6.66 3.32 7 4 C6.67 4.66 6.34 5.32 6 6 C2.26360784 4.75453595 1.81243487 3.36595047 0 0 Z " fill="#894E95" transform="translate(305,315)"/>
<path d="M0 0 C2.31 1.98 4.62 3.96 7 6 C5.68 6.33 4.36 6.66 3 7 C0 2.25 0 2.25 0 0 Z " fill="#9B63A5" transform="translate(405,242)"/>
<path d="M0 0 C0.66 0.33 1.32 0.66 2 1 C0.55609075 4.80666984 -1.34952803 6.26602582 -5 8 C-5.66 7.67 -6.32 7.34 -7 7 C-4.69 4.69 -2.38 2.38 0 0 Z " fill="#C99DCC" transform="translate(354,87)"/>
<path d="M0 0 C0.99 0 1.98 0 3 0 C3 0.66 3 1.32 3 2 C4.65 2.33 6.3 2.66 8 3 C8 3.66 8 4.32 8 5 C4.5625 4.1875 4.5625 4.1875 1 3 C0.67 2.01 0.34 1.02 0 0 Z " fill="#905796" transform="translate(338,352)"/>
<path d="M0 0 C2.64 0.33 5.28 0.66 8 1 C8 1.66 8 2.32 8 3 C5.125 3.1875 5.125 3.1875 2 3 C1.34 2.01 0.68 1.02 0 0 Z " fill="#854990" transform="translate(110,351)"/>
<path d="M0 0 C0.99 0.33 1.98 0.66 3 1 C2 4 2 4 -0.0625 5.1875 C-0.701875 5.455625 -1.34125 5.72375 -2 6 C-2.33 4.68 -2.66 3.36 -3 2 C-2.01 1.34 -1.02 0.68 0 0 Z " fill="#935CA0" transform="translate(400,135)"/>
<path d="M0 0 C0.33 1.65 0.66 3.3 1 5 C0.01 5.33 -0.98 5.66 -2 6 C-2.66 4.35 -3.32 2.7 -4 1 C-2 0 -2 0 0 0 Z " fill="#82439A" transform="translate(422,114)"/>
<path d="M0 0 C2.625 0.375 2.625 0.375 5 1 C5 1.99 5 2.98 5 4 C2.69 3.34 0.38 2.68 -2 2 C-1.34 1.34 -0.68 0.68 0 0 Z " fill="#9C66A6" transform="translate(276,284)"/>
<path d="M0 0 C1.875 0.3125 1.875 0.3125 4 1 C4.66 1.99 5.32 2.98 6 4 C4.02 4 2.04 4 0 4 C0 2.66666667 0 1.33333333 0 0 Z " fill="#864E93" transform="translate(377,216)"/>
<path d="M0 0 C0.66 0.33 1.32 0.66 2 1 C1.67 2.32 1.34 3.64 1 5 C-0.32 5.33 -1.64 5.66 -3 6 C-3.33 5.01 -3.66 4.02 -4 3 C-2.68 2.01 -1.36 1.02 0 0 Z " fill="#A772AF" transform="translate(275,160)"/>
<path d="M0 0 C0.99 0 1.98 0 3 0 C2.67 1.32 2.34 2.64 2 4 C0.68 4.33 -0.64 4.66 -2 5 C-1.125 1.125 -1.125 1.125 0 0 Z " fill="#783C8B" transform="translate(285,152)"/>
<path d="M0 0 C1.32 0.33 2.64 0.66 4 1 C2.68 2.32 1.36 3.64 0 5 C-0.66 4.67 -1.32 4.34 -2 4 C-2 3.34 -2 2.68 -2 2 C-1.34 2 -0.68 2 0 2 C0 1.34 0 0.68 0 0 Z " fill="#854896" transform="translate(439,97)"/>
</svg>
